<svg xmlns="http://www.w3.org/2000/svg" width="1024" height="1024" viewBox="0 0 1024 1024">
  <defs>
    <linearGradient id="mic" x1="405" y1="205" x2="630" y2="642" gradientUnits="userSpaceOnUse">
      <stop offset="0" stop-color="#FF5B49"/>
      <stop offset="1" stop-color="#FFA53A"/>
    </linearGradient>
  </defs>
  <path fill="url(#mic)" fill-rule="evenodd" d="
    M512 181C454 181 407 228 407 286V535C407 594 454 641 512 641C570 641 617 594 617 535V286C617 228 570 181 512 181Z
    M407 305H464C472 305 478 311 478 319C478 327 472 333 464 333H407Z
    M560 305H617V333H560C552 333 546 327 546 319C546 311 552 305 560 305Z
    M407 359H464C472 359 478 365 478 373C478 381 472 387 464 387H407Z
    M560 359H617V387H560C552 387 546 381 546 373C546 365 552 359 560 359Z
    M407 413H464C472 413 478 419 478 427C478 435 472 441 464 441H407Z
    M560 413H617V441H560C552 441 546 435 546 427C546 419 552 413 560 413Z
    M407 467H464C472 467 478 473 478 481C478 489 472 495 464 495H407Z
    M560 467H617V495H560C552 495 546 489 546 481C546 473 552 467 560 467Z"/>
</svg>
